<svg width="1000" height="354" viewBox="0 0 1000 354" fill="none" xmlns="http://www.w3.org/2000/svg">
<path d="M116.816 168.275C122.146 169.64 127.063 171.829 131.6 174.874C136.168 177.888 140.103 181.569 143.402 185.915C146.733 190.277 149.335 195.147 151.207 200.509C153.11 205.918 154.062 211.566 154.062 217.451C154.062 212.327 153.063 207.584 151.08 203.237C149.081 198.891 146.384 195.052 142.958 191.753C139.563 188.421 135.693 185.82 131.346 183.948C126.984 182.044 122.431 181.093 117.704 181.093C111.993 181.093 106.854 182.393 102.285 184.963C97.7481 187.501 93.4651 190.674 89.4042 194.481C85.3432 198.256 81.3616 202.349 77.4752 206.791C73.5729 211.232 69.5436 215.357 65.3558 219.164C61.1997 222.971 56.758 226.144 52.0308 228.682C47.2878 231.252 42.0688 232.552 36.3581 232.552C31.2344 232.552 26.4913 231.553 22.1448 229.57C17.7825 227.571 13.9595 224.827 10.66 221.321C7.36046 217.8 4.75892 213.723 2.85535 209.075C0.951783 204.411 0 199.446 0 194.164C0 185.629 2.36359 178.047 7.10665 171.448C11.8338 164.817 17.9094 160.249 25.3174 157.742C22.6524 159.265 20.5585 161.708 19.0357 165.039C17.5128 168.339 16.7514 171.607 16.7514 174.811C16.7514 179.935 18.5915 184.36 22.2717 188.072C25.9837 191.753 30.4095 193.593 35.5332 193.593C40.8156 193.593 46.1615 192.324 51.5867 189.786C56.996 187.216 62.5322 184.313 68.2111 181.093C60.2479 179.951 52.8557 177.587 46.0029 173.986C39.1817 170.401 33.2648 165.848 28.2362 160.344C23.2394 154.855 19.3212 148.589 16.4976 141.562C13.6581 134.55 12.2463 127.063 12.2463 119.1C12.2463 110.772 13.8484 102.92 17.0686 95.559C20.273 88.1669 24.6353 81.6313 30.1398 75.9523C35.6284 70.2416 42.1323 65.673 49.6196 62.2466C57.107 58.8202 65.102 56.9484 73.6046 56.5994C67.5449 58.0905 62.9605 64.1978 59.8354 74.9371C56.6946 85.6446 55.14 100.366 55.14 119.1C55.14 135.772 56.409 149.287 58.9471 159.646C61.5169 169.973 65.2923 176.746 70.2416 179.951C73.8267 177.888 77.3641 175.937 80.8381 174.113C84.3439 172.305 88.0082 170.845 91.8154 169.735C94.2583 164.405 96.0667 157.488 97.2088 148.986C98.3509 140.451 98.922 130.489 98.922 119.1C98.922 100.366 97.3516 85.6446 94.2265 74.9371C91.0857 64.1978 86.5012 58.0905 80.4574 56.5994C88.96 56.9484 96.955 58.8202 104.442 62.2466C111.93 65.673 118.418 70.2416 123.922 75.9523C129.411 81.6313 133.773 88.1669 136.993 95.559C140.245 102.92 141.879 110.772 141.879 119.1C141.879 129.173 139.627 138.484 135.153 147.019C130.712 155.521 124.588 162.612 116.816 168.275ZM102.348 251.271C101.206 252.619 100.143 254.031 99.1758 255.522C98.2399 257.045 97.7799 258.568 97.7799 260.091C97.7799 262.375 98.5413 264.215 100.064 265.611C101.587 267.039 103.681 267.768 106.346 267.768C100.841 267.768 95.6225 266.912 90.6732 265.23C85.7557 263.533 81.3616 261.201 77.4752 258.251C73.5729 255.332 70.4954 251.921 68.2111 248.035C65.9269 244.132 64.7847 240.008 64.7847 235.662C64.7847 229.602 66.958 224.383 71.3203 219.989C75.7144 215.627 80.9333 213.453 86.993 213.453C90.0387 213.453 92.8623 214.024 95.4956 215.166C98.1606 216.309 100.477 217.863 102.475 219.862C104.458 221.845 106.029 224.208 107.171 226.969C108.313 229.713 108.884 232.616 108.884 235.662C108.884 241.705 106.695 246.908 102.348 251.271ZM106.6 61.6756C100.715 57.3291 95.3052 51.777 90.356 45.0511C85.4384 38.3251 82.9955 30.695 82.9955 22.1448C82.9955 16.101 85.1687 10.8979 89.5311 6.53558C93.8776 2.1891 99.1124 0 105.204 0C108.202 0 111.041 0.57107 113.706 1.71321C116.371 2.85535 118.687 4.42579 120.686 6.40867C122.669 8.40742 124.239 10.771 125.382 13.5153C126.524 16.2755 127.095 19.1467 127.095 22.1448C127.095 27.2686 125.715 31.4564 122.97 34.7084C120.21 37.9286 116.657 40.657 112.31 42.8937C109.043 44.6386 106.663 46.2249 105.14 47.6526C103.649 49.0486 102.92 51.079 102.92 53.744C102.92 56.2028 104.141 58.8519 106.6 61.6756Z" fill="#FF963D"/>
<path d="M215.731 56.5995C224.44 56.9485 232.577 59.0583 240.16 62.9447C247.774 66.847 254.405 72.0184 260.084 78.4905C265.795 84.9309 270.252 92.45 273.472 101.079C276.677 109.677 278.295 118.814 278.295 128.491C278.295 138.136 276.677 147.273 273.472 155.902C270.252 164.532 265.795 172.083 260.084 178.555C254.405 184.995 247.774 190.151 240.16 194.037C232.577 197.892 224.44 200.002 215.731 200.382C222.203 199.066 227.089 192.308 230.388 180.078C233.688 167.863 235.338 150.667 235.338 128.491C235.338 106.33 233.688 89.1346 230.388 76.9042C227.089 64.6896 222.203 57.9161 215.731 56.5995ZM210.908 56.5995C204.643 57.9161 199.804 64.6896 196.378 76.9042C192.983 89.1346 191.302 106.33 191.302 128.491C191.302 150.667 192.983 167.863 196.378 180.078C199.804 192.308 204.643 199.066 210.908 200.382C202.184 200.002 194.046 197.892 186.479 194.037C178.897 190.151 172.298 184.995 166.682 178.555C161.098 172.083 156.689 164.532 153.484 155.902C150.264 147.273 148.662 138.136 148.662 128.491C148.662 118.814 150.264 109.677 153.484 101.079C156.689 92.45 161.098 84.9309 166.682 78.4905C172.298 72.0184 178.897 66.847 186.479 62.9447C194.046 59.0583 202.184 56.9485 210.908 56.5995Z" fill="#FF963D"/>
<path d="M322.087 0C323.562 0 324.72 0.491756 325.577 1.4594C326.465 2.39532 326.909 3.61678 326.909 5.13963V193.022C326.909 194.719 326.338 196.131 325.196 197.273C324.054 198.415 322.626 198.986 320.945 198.986H272.594C275.798 198.447 278.559 196.559 280.843 193.339C283.127 190.087 284.269 186.772 284.269 183.377V22.7159C284.269 19.3371 283.127 16.0375 280.843 12.8173C278.559 9.56542 275.798 7.66186 272.594 7.10665L321.198 0H322.087ZM412.443 122.78C413.41 132.647 412.839 142.07 410.729 151.08C408.651 160.09 405.431 168.117 401.085 175.128C396.722 182.108 391.265 187.85 384.714 192.324C378.194 196.765 371.04 199.367 363.267 200.128C357.001 200.89 350.894 200.271 344.93 198.288C338.965 196.305 333.413 193.323 328.305 189.341C331.351 190.658 334.095 191.308 336.554 191.308C341.281 191.308 345.691 189.516 349.752 185.915C353.845 182.33 357.398 177.508 360.412 171.448C363.458 165.356 365.869 158.345 367.645 150.382C369.454 142.434 370.374 134.106 370.374 125.382C370.374 116.673 369.454 108.376 367.645 100.508C365.869 92.6402 363.458 85.7239 360.412 79.7594C357.398 73.7949 353.845 69.0677 349.752 65.5461C345.691 62.0404 341.281 60.2796 336.554 60.2796C333.508 60.2796 330.748 60.8507 328.305 61.9928C333.794 59.3278 340.139 57.5353 347.341 56.5994C355.114 55.8379 362.696 56.9801 370.057 60.0258C377.449 63.0398 384.143 67.5132 390.107 73.4777C396.104 79.4422 401.101 86.7074 405.082 95.2418C409.048 103.744 411.507 112.929 412.443 122.78Z" fill="#FF963D"/>
<path d="M456.82 0C458.296 0 459.454 0.491756 460.31 1.4594C461.199 2.39532 461.643 3.61678 461.643 5.13963V193.022C461.643 194.719 461.072 196.131 459.93 197.273C458.787 198.415 457.36 198.986 455.678 198.986H407.328C410.532 198.447 413.292 196.559 415.576 193.339C417.861 190.087 419.003 186.772 419.003 183.377V22.7159C419.003 19.3371 417.861 16.0375 415.576 12.8173C413.292 9.56542 410.532 7.66186 407.328 7.10665L455.932 0H456.82ZM547.176 122.78C548.144 132.647 547.573 142.07 545.463 151.08C543.385 160.09 540.165 168.117 535.818 175.128C531.456 182.108 525.999 187.85 519.448 192.324C512.928 196.765 505.774 199.367 498.001 200.128C491.735 200.89 485.628 200.271 479.663 198.288C473.699 196.305 468.147 193.323 463.039 189.341C466.084 190.658 468.829 191.308 471.287 191.308C476.015 191.308 480.425 189.516 484.486 185.915C488.578 182.33 492.132 177.508 495.146 171.448C498.191 165.356 500.602 158.345 502.379 150.382C504.187 142.434 505.107 134.106 505.107 125.382C505.107 116.673 504.187 108.376 502.379 100.508C500.602 92.6402 498.191 85.7239 495.146 79.7594C492.132 73.7949 488.578 69.0677 484.486 65.5461C480.425 62.0404 476.015 60.2796 471.287 60.2796C468.242 60.2796 465.482 60.8507 463.039 61.9928C468.527 59.3278 474.873 57.5353 482.074 56.5994C489.847 55.8379 497.43 56.9801 504.79 60.0258C512.182 63.0398 518.877 67.5132 524.841 73.4777C530.837 79.4422 535.834 86.7074 539.816 95.2418C543.782 103.744 546.24 112.929 547.176 122.78Z" fill="#FF963D"/>
<path d="M596.377 183.377C596.377 186.772 597.487 190.087 599.74 193.339C602.024 196.559 604.768 198.447 607.988 198.986H542.062C545.266 198.447 548.026 196.559 550.31 193.339C552.595 190.087 553.737 186.772 553.737 183.377V22.7159C553.737 19.3371 552.595 16.0375 550.31 12.8173C548.026 9.56542 545.266 7.66186 542.062 7.10665L590.666 0H591.554C593.03 0 594.188 0.491756 595.044 1.4594C595.932 2.39532 596.377 3.61678 596.377 5.13963V183.377Z" fill="#FF963D"/>
<path d="M691.852 182.235C697.341 182.235 702.734 180.871 708.033 178.11C713.363 175.366 718.011 171.511 721.992 166.562C716.313 176.81 708.635 185.011 698.959 191.182C689.314 197.321 678.686 200.382 667.106 200.382C658.223 200.382 649.847 198.51 641.979 194.735C634.111 190.928 627.226 185.82 621.357 179.38C615.472 172.955 610.824 165.388 607.397 156.664C604.003 147.907 602.321 138.516 602.321 128.491C602.321 118.64 604.003 109.312 607.397 100.508C610.824 91.6727 615.472 84.0426 621.357 77.6022C627.226 71.1776 634.111 66.0856 641.979 62.3102C649.847 58.5031 658.223 56.5995 667.106 56.5995C665.234 56.9485 663.013 58.6775 660.444 61.8026C657.905 64.9435 655.494 69.0678 653.21 74.1758C650.926 79.2995 648.975 85.2164 647.372 91.9424C645.754 98.6683 644.961 105.838 644.961 113.453C644.961 122.939 646.183 131.838 648.641 140.166C651.084 148.51 654.447 155.807 658.73 162.057C662.997 168.275 667.963 173.209 673.642 176.841C679.352 180.442 685.412 182.235 691.852 182.235ZM688.426 105.204C688.426 99.4932 687.95 93.957 687.03 88.5794C686.094 83.1701 684.873 78.2843 683.35 73.9219C681.827 69.5755 679.955 65.8635 677.766 62.8178C675.609 59.7721 673.293 57.7099 670.85 56.5995C678.036 57.1547 684.762 58.9472 691.027 61.9929C697.278 65.0069 702.861 68.9727 707.779 73.9219C712.728 78.8395 716.853 84.6136 720.152 91.2444C723.452 97.891 725.863 105.109 727.386 112.882H680.494C682.557 112.882 684.397 112.12 686.015 110.597C687.617 109.074 688.426 107.282 688.426 105.204Z" fill="#FF963D"/>
<path d="M838.521 168.275C843.851 169.64 848.768 171.829 853.305 174.874C857.874 177.888 861.808 181.569 865.107 185.915C868.439 190.277 871.04 195.147 872.912 200.509C874.816 205.918 875.767 211.566 875.767 217.451C875.767 212.327 874.768 207.584 872.785 203.237C870.786 198.891 868.09 195.052 864.663 191.753C861.268 188.421 857.398 185.82 853.051 183.948C848.689 182.044 844.136 181.093 839.409 181.093C833.698 181.093 828.559 182.393 823.99 184.963C819.453 187.501 815.17 190.674 811.11 194.481C807.049 198.256 803.067 202.349 799.18 206.791C795.278 211.232 791.249 215.357 787.061 219.164C782.905 222.971 778.463 226.144 773.736 228.682C768.993 231.252 763.774 232.552 758.063 232.552C752.94 232.552 748.197 231.553 743.85 229.57C739.488 227.571 735.665 224.827 732.365 221.321C729.066 217.8 726.464 213.723 724.561 209.075C722.657 204.411 721.705 199.446 721.705 194.164C721.705 185.629 724.069 178.047 728.812 171.448C733.539 164.817 739.615 160.249 747.023 157.742C744.358 159.265 742.264 161.708 740.741 165.039C739.218 168.339 738.457 171.607 738.457 174.811C738.457 179.935 740.297 184.36 743.977 188.072C747.689 191.753 752.115 193.593 757.239 193.593C762.521 193.593 767.867 192.324 773.292 189.786C778.701 187.216 784.237 184.313 789.916 181.093C781.953 179.951 774.561 177.587 767.708 173.986C760.887 170.401 754.97 165.848 749.942 160.344C744.945 154.855 741.027 148.589 738.203 141.562C735.363 134.55 733.952 127.063 733.952 119.1C733.952 110.772 735.554 102.92 738.774 95.559C741.978 88.1669 746.341 81.6313 751.845 75.9523C757.334 70.2416 763.838 65.673 771.325 62.2466C778.812 58.8202 786.807 56.9484 795.31 56.5994C789.25 58.0905 784.666 64.1978 781.541 74.9371C778.4 85.6446 776.845 100.366 776.845 119.1C776.845 135.772 778.114 149.287 780.652 159.646C783.222 169.973 786.998 176.746 791.947 179.951C795.532 177.888 799.069 175.937 802.543 174.113C806.049 172.305 809.714 170.845 813.521 169.735C815.964 164.405 817.772 157.488 818.914 148.986C820.056 140.451 820.627 130.489 820.627 119.1C820.627 100.366 819.057 85.6446 815.932 74.9371C812.791 64.1978 808.207 58.0905 802.163 56.5994C810.665 56.9484 818.66 58.8202 826.148 62.2466C833.635 65.673 840.123 70.2416 845.628 75.9523C851.116 81.6313 855.478 88.1669 858.699 95.559C861.951 102.92 863.584 110.772 863.584 119.1C863.584 129.173 861.332 138.484 856.859 147.019C852.417 155.521 846.294 162.612 838.521 168.275ZM824.054 251.271C822.912 252.619 821.849 254.031 820.881 255.522C819.945 257.045 819.485 258.568 819.485 260.091C819.485 262.375 820.247 264.215 821.769 265.611C823.292 267.039 825.386 267.768 828.051 267.768C822.547 267.768 817.328 266.912 812.379 265.23C807.461 263.533 803.067 261.201 799.18 258.251C795.278 255.332 792.201 251.921 789.916 248.035C787.632 244.132 786.49 240.008 786.49 235.662C786.49 229.602 788.663 224.383 793.026 219.989C797.42 215.627 802.639 213.453 808.698 213.453C811.744 213.453 814.568 214.024 817.201 215.166C819.866 216.309 822.182 217.863 824.181 219.862C826.164 221.845 827.734 224.208 828.876 226.969C830.018 229.713 830.589 232.616 830.589 235.662C830.589 241.705 828.4 246.908 824.054 251.271ZM828.305 61.6756C822.42 57.3291 817.011 51.777 812.061 45.0511C807.144 38.3251 804.701 30.695 804.701 22.1448C804.701 16.101 806.874 10.8979 811.236 6.53558C815.583 2.1891 820.818 0 826.909 0C829.907 0 832.747 0.57107 835.412 1.71321C838.077 2.85535 840.393 4.42579 842.391 6.40867C844.374 8.40742 845.945 10.771 847.087 13.5153C848.229 16.2755 848.8 19.1467 848.8 22.1448C848.8 27.2686 847.42 31.4564 844.676 34.7084C841.916 37.9286 838.362 40.657 834.016 42.8937C830.748 44.6386 828.369 46.2249 826.846 47.6526C825.355 49.0486 824.625 51.079 824.625 53.744C824.625 56.2028 825.846 58.8519 828.305 61.6756Z" fill="#FF963D"/>
<path d="M937.436 56.5995C946.145 56.9485 954.283 59.0583 961.865 62.9447C969.48 66.847 976.11 72.0184 981.789 78.4905C987.5 84.9309 991.957 92.45 995.178 101.079C998.382 109.677 1000 118.814 1000 128.491C1000 138.136 998.382 147.273 995.178 155.902C991.957 164.532 987.5 172.083 981.789 178.555C976.11 184.995 969.48 190.151 961.865 194.037C954.283 197.892 946.145 200.002 937.436 200.382C943.908 199.066 948.794 192.308 952.094 180.078C955.393 167.863 957.043 150.667 957.043 128.491C957.043 106.33 955.393 89.1346 952.094 76.9042C948.794 64.6896 943.908 57.9161 937.436 56.5995ZM932.614 56.5995C926.348 57.9161 921.51 64.6896 918.083 76.9042C914.689 89.1346 913.007 106.33 913.007 128.491C913.007 150.667 914.689 167.863 918.083 180.078C921.51 192.308 926.348 199.066 932.614 200.382C923.889 200.002 915.751 197.892 908.185 194.037C900.602 190.151 894.003 184.995 888.388 178.555C882.804 172.083 878.394 164.532 875.19 155.902C871.969 147.273 870.367 138.136 870.367 128.491C870.367 118.814 871.969 109.677 875.19 101.079C878.394 92.45 882.804 84.9309 888.388 78.4905C894.003 72.0184 900.602 66.847 908.185 62.9447C915.751 59.0583 923.889 56.9485 932.614 56.5995Z" fill="#FF963D"/>
<mask id="mask0_19_104" style="mask-type:luminance" maskUnits="userSpaceOnUse" x="874" y="247" width="107" height="107">
<path d="M874.376 247.269H980.976V353.869H874.376V247.269Z" fill="white"/>
</mask>
<g mask="url(#mask0_19_104)">
<path d="M980.024 300.093C940.398 307.39 934.497 313.291 927.2 352.917C919.903 313.291 913.987 307.39 874.376 300.093C913.987 292.796 919.903 286.895 927.2 247.269C934.497 286.895 940.398 292.796 980.024 300.093Z" fill="#FF963D"/>
</g>
</svg>
